<svg version="1.1" xmlns="http://www.w3.org/2000/svg" xmlns:xlink="http://www.w3.org/1999/xlink" x="0px" y="0px"
	 width="99.036px" height="99.035px" viewBox="0 0 99.036 99.035" style="enable-background:new 0 0 99.036 99.035;"
	 xml:space="preserve">
<path fill="#fff" d="M36.851,49.518c0-6.992,5.676-12.695,12.667-12.695c7.02,0,12.695,5.703,12.695,12.695
	c0,7.019-5.676,12.695-12.695,12.695C42.526,62.212,36.851,56.536,36.851,49.518L36.851,49.518z M62.625,24.704H36.44
	c-6.443,0-11.735,5.264-11.735,11.735v26.185c0,6.442,5.292,11.733,11.735,11.733h26.186c6.471,0,11.734-5.291,11.734-11.733V36.439
	C74.359,29.968,69.095,24.704,62.625,24.704L62.625,24.704z M36.44,27.638h26.186c4.854,0,8.801,3.947,8.801,8.801v26.185
	c0,4.853-3.948,8.8-8.801,8.8H36.44c-4.854,0-8.802-3.947-8.802-8.8V36.439C27.638,31.585,31.586,27.638,36.44,27.638L36.44,27.638z
	 M65.229,31.339c-1.426,0-2.577,1.151-2.577,2.577c0,1.426,1.151,2.578,2.577,2.578s2.578-1.151,2.578-2.578
	C67.807,32.491,66.655,31.339,65.229,31.339L65.229,31.339z M65.53,49.518c0-8.829-7.156-16.012-16.012-16.012
	c-8.829,0-16.012,7.183-16.012,16.012c0,8.856,7.183,16.013,16.012,16.013C58.375,65.529,65.53,58.374,65.53,49.518L65.53,49.518z"
	/>
</svg>
