<?xml version="1.0" encoding="utf-8"?>
<!-- Generator: Adobe Illustrator 16.0.0, SVG Export Plug-In . SVG Version: 6.00 Build 0)  -->
<!DOCTYPE svg PUBLIC "-//W3C//DTD SVG 1.1//EN" "http://www.w3.org/Graphics/SVG/1.1/DTD/svg11.dtd">
<svg version="1.1" id="Layer_1" xmlns="http://www.w3.org/2000/svg" xmlns:xlink="http://www.w3.org/1999/xlink" x="0px" y="0px"
	 width="99.036px" height="99.035px" viewBox="0 0 99.036 99.035" enable-background="new 0 0 99.036 99.035" xml:space="preserve">
<g>
	<path id="LinkedIn" fill="#FFFFFF" d="M75.924,54.952v19.524H64.605V56.259c0-4.575-1.638-7.699-5.735-7.699
		c-3.128,0-4.988,2.105-5.808,4.14c-0.299,0.729-0.375,1.741-0.375,2.761v19.016H41.364c0,0,0.152-30.854,0-34.051h11.322v4.827
		c-0.023,0.036-0.053,0.075-0.075,0.11h0.075v-0.11c1.504-2.317,4.19-5.627,10.203-5.627C70.338,39.625,75.924,44.492,75.924,54.952
		z M29.519,24.011c-3.874,0-6.407,2.541-6.407,5.883c0,3.268,2.46,5.886,6.257,5.886h0.075c3.949,0,6.404-2.617,6.404-5.886
		C35.774,26.552,33.393,24.011,29.519,24.011z M23.784,74.477h11.319V40.426H23.784V74.477z"/>
</g>
</svg>
