<svg version="1.1"  xmlns="http://www.w3.org/2000/svg" xmlns:xlink="http://www.w3.org/1999/xlink" x="0px" y="0px"
 viewBox="0 0 91.125 72.754" enable-background="new 0 0 91.125 72.754" xml:space="preserve">
<path fill="#0B80C4" d="M28.275,27.555c0,6.664,13.867,7.746,13.867,24.127c0,12.07-8.645,21.072-20.713,21.072
			C8.465,72.754,0,61.229,0,48.989C0,27.91,19.81,0,32.056,0C35.118,0,40.7,2.162,40.7,5.945
			C40.7,9.727,28.275,16.211,28.275,27.555z M77.258,27.555c0,6.664,13.867,7.746,13.867,24.127c0,12.07-8.645,21.072-20.711,21.072
			c-12.966,0-21.432-11.525-21.432-23.766C48.982,27.91,68.793,0,81.039,0c3.064,0,8.645,2.162,8.645,5.945
			C89.684,9.727,77.258,16.211,77.258,27.555z"/>
</svg>
