<svg version="1.1" id="Layer_1" xmlns="http://www.w3.org/2000/svg" xmlns:xlink="http://www.w3.org/1999/xlink" x="0px" y="0px"
	 width="478.034px" height="476.27px" viewBox="181.023 -0.045 478.034 476.27"
	 enable-background="new 181.023 -0.045 478.034 476.27" xml:space="preserve">
<path fill="#27AE61" d="M659.057,434.746L543.774,320.114c24.601-33.351,39.13-74.58,39.087-119.195c0-0.316,0-0.633-0.002-0.95
	C582.359,89.006,492-0.543,381.037-0.043C270.073,0.456,180.526,90.815,181.025,201.778c0.5,110.964,90.858,200.513,201.822,200.013
	c44.891-0.149,86.295-15.029,119.646-40.052l115.18,114.485L659.057,434.746z M380.942,343.257
	c-78.612-0.526-141.913-64.681-141.388-143.293c0.526-78.612,64.681-141.914,143.293-141.388
	c78.318,0.341,141.575,64.024,141.391,142.343c0,0.316-0.001,0.633-0.003,0.949C523.708,280.48,459.554,343.782,380.942,343.257z"/>
</svg>
