<?xml version="1.0" encoding="utf-8"?>
<!-- Generator: Adobe Illustrator 16.0.0, SVG Export Plug-In . SVG Version: 6.00 Build 0)  -->
<!DOCTYPE svg PUBLIC "-//W3C//DTD SVG 1.1//EN" "http://www.w3.org/Graphics/SVG/1.1/DTD/svg11.dtd">
<svg version="1.1" xmlns="http://www.w3.org/2000/svg" xmlns:xlink="http://www.w3.org/1999/xlink" x="0px" y="0px"
	 width="595.281px" height="841.89px" viewBox="0 0 595.281 841.89" enable-background="new 0 0 595.281 841.89"
	 xml:space="preserve">
<g id="Layer_1">
	<polygon fill="#FFFFFF" points="2.14,362.445 58.14,378.445 199.14,455.445 361.14,465.445 496.14,381.445 595.281,354.445 
		595.281,841.89 0.14,841.445 	"/>
	<path fill="#0B80C4" d="M432.546,400.227c-36.547,24.509-68.105,45.659-134.948,45.659c-66.809,0-98.368-21.15-134.916-45.659
		C124.855,374.87,81.99,346.122,0,346.122v49.882c66.809,0,98.368,21.15,134.916,45.675c37.827,25.357,80.693,54.09,162.683,54.09
		c82.006,0,124.889-28.75,162.733-54.105c36.547-24.51,68.105-45.66,134.949-45.66v-49.882
		C513.273,346.122,470.392,374.87,432.546,400.227z"/>
</g>
<g id="Layer_2">
</g>
</svg>
