<svg version="1.1"  xmlns="http://www.w3.org/2000/svg" xmlns:xlink="http://www.w3.org/1999/xlink" x="0px" y="0px"  viewBox="0 0 53.374 53.374" enable-background="new 0 0 53.374 53.374" xml:space="preserve"><path fill="#0e82c5" d="M51.404,9.381c-0.944-0.978-2.266-1.539-3.625-1.539c-1.312,0-2.555,0.502-3.5,1.413L19.16,33.521
	l-10.106-9.53c-0.942-0.887-2.17-1.374-3.459-1.374c-1.384,0-2.721,0.578-3.669,1.584c-0.922,0.979-1.41,2.259-1.37,3.605
	c0.04,1.346,0.601,2.595,1.581,3.519l13.607,12.831c0.936,0.885,2.166,1.374,3.458,1.374c1.313,0,2.557-0.502,3.501-1.415
	l28.577-27.607c0.969-0.935,1.516-2.192,1.538-3.539C52.843,11.624,52.34,10.35,51.404,9.381z"/></svg>
