<svg version="1.1" id="Layer_1" xmlns="http://www.w3.org/2000/svg" xmlns:xlink="http://www.w3.org/1999/xlink" x="0px" y="0px"
	 width="99.036px" height="99.035px" viewBox="0 0 99.036 99.035" enable-background="new 0 0 99.036 99.035" xml:space="preserve">
<path fill="#FFFFFF" d="M79.615,43.095c4.276-0.352,7.182-2.3,8.294-4.936c-1.542,0.947-6.337,1.981-8.979,0.997
	c-0.131-0.622-0.272-1.214-0.418-1.744c-2.017-7.403-8.919-13.366-16.151-12.645c0.587-0.236,1.18-0.458,1.773-0.655
	c0.791-0.286,5.462-1.046,4.729-2.694c-0.62-1.448-6.322,1.096-7.398,1.431c1.417-0.537,3.763-1.451,4.015-3.083
	c-2.174,0.296-4.309,1.326-5.954,2.817c0.596-0.638,1.044-1.422,1.142-2.26c-5.794,3.701-9.183,11.167-11.92,18.409
	c-2.152-2.086-4.057-3.728-5.768-4.64c-4.797-2.576-10.536-5.257-19.542-8.601c-0.276,2.978,1.475,6.942,6.518,9.578
	c-1.092-0.145-3.089,0.181-4.688,0.563c0.651,3.412,2.777,6.225,8.528,7.587c-2.629,0.171-3.988,0.768-5.218,2.057
	c1.198,2.378,4.119,5.168,9.377,4.593c-5.843,2.523-2.385,7.189,2.373,6.491c-8.114,8.383-20.907,7.766-28.251,0.755
	c19.183,26.132,60.874,15.454,67.086-9.717c4.658,0.034,7.392-1.611,9.091-3.438C85.566,44.424,81.676,43.953,79.615,43.095z"/>
</svg>
