<?xml version="1.0" encoding="utf-8"?>
<!-- Generator: Adobe Illustrator 16.0.0, SVG Export Plug-In . SVG Version: 6.00 Build 0)  -->
<!DOCTYPE svg PUBLIC "-//W3C//DTD SVG 1.1//EN" "http://www.w3.org/Graphics/SVG/1.1/DTD/svg11.dtd">
<svg version="1.1" xmlns="http://www.w3.org/2000/svg" xmlns:xlink="http://www.w3.org/1999/xlink" x="0px" y="0px"
	 width="99.036px" height="99.062px" viewBox="0 0 99.036 99.062" style="enable-background:new 0 0 99.036 99.062;"
	 xml:space="preserve">
<g id="_x31_6">
	<path style="fill-rule:evenodd;clip-rule:evenodd;fill:#FFFFFF;" d="M74.304,38.989c0,0-0.52-3.646-2.029-5.237
		c-1.918-2.083-4.085-2.111-5.044-2.249c-7.074-0.521-17.685-0.521-17.685-0.521h-0.057c0,0-10.582,0-17.658,0.521
		c-1.013,0.138-3.151,0.166-5.07,2.249c-1.509,1.59-2.028,5.237-2.028,5.237s-0.522,4.277-0.522,8.5v0.549v3.481
		c0,4.277,0.522,8.5,0.522,8.5s0.52,3.646,2.028,5.264c1.919,2.111,4.442,2.029,5.594,2.248c4.03,0.412,17.191,0.549,17.191,0.549
		s10.61-0.055,17.685-0.549c0.959-0.137,3.126-0.137,5.044-2.248c1.51-1.618,2.029-5.264,2.029-5.264s0.493-4.223,0.493-8.5v-3.262
		v-0.768C74.797,43.266,74.304,38.989,74.304,38.989L74.304,38.989z M57.963,48.97L44.28,56.344V44.993v-3.455l6.197,3.373
		L57.963,48.97z"/>
</g>
<g id="Layer_1">
</g>
</svg>
